<svg xmlns="http://www.w3.org/2000/svg" xmlns:v="https://svgstorm.com"
viewBox = "0 0 327 306"
width="327"
height="306">
<g fill="None" fill-opacity="0.0" stroke="#000000" stroke-opacity="0.00" stroke-width="0.3"><path d="
M 0.00 306.00 
L 327.00 306.00
L 327.00 0.00
L 0.00 0.00
L 0.00 306.00
M 103.00 4.00 
C 124.49 5.71 144.53 16.30 162.00 28.00
C 180.08 16.53 199.53 6.33 221.00 4.00
C 226.43 2.95 232.64 3.04 238.00 4.00
C 252.25 4.97 265.81 11.17 277.00 20.00
C 280.01 22.37 282.57 25.16 285.00 28.00
C 294.66 39.31 299.43 51.99 303.00 66.00
C 303.93 67.66 303.85 66.08 304.00 68.00
C 304.62 69.97 304.85 72.89 305.00 75.00
C 305.33 76.42 305.92 78.01 306.00 80.00
C 306.14 83.54 305.40 87.19 305.00 90.00
C 304.85 93.88 304.37 97.16 304.00 101.00
C 303.83 102.76 303.38 103.76 303.00 105.00
C 303.02 105.50 302.97 106.50 303.00 107.00
C 303.25 110.58 301.72 111.63 301.00 114.00
C 298.02 131.62 289.78 147.34 282.69 163.69 C 275.61 180.05 275.53 203.24 271.02 220.02 C 266.52 236.81 260.97 256.76 253.23 271.23 C 245.49 285.70 236.28 306.11 217.00 303.00 C 197.72 299.89 196.72 274.89 190.07 260.93 C 183.42 246.96 186.81 222.79 167.92 215.08 C 149.04 207.36 141.28 238.68 137.00 251.00
C 136.80 252.14 136.63 252.50 136.00 254.00
C 134.72 259.33 133.46 264.70 132.00 270.00
C 131.79 271.38 131.92 273.01 131.00 275.00
C 124.92 288.14 110.06 312.82 92.92 300.08 C 75.79 287.33 73.28 275.36 65.69 258.31 C 58.11 241.25 52.94 223.27 50.22 204.78 C 47.50 186.29 44.96 166.34 36.08 149.92 C 27.19 133.51 21.30 115.39 20.00 97.00
C 19.68 95.83 19.10 94.70 19.00 93.00
C 18.69 87.57 19.33 81.67 20.00 77.00
C 21.34 41.81 50.10 5.41 87.00 4.00
C 92.15 3.26 97.88 3.01 103.00 4.00 Z"/>
</g>
<g fill="None" fill-opacity="0.0" stroke="#636A65" stroke-opacity="0.21" stroke-width="0.3"><path d="
M 87.00 4.00 
C 92.21 3.80 97.80 3.59 103.00 4.00
C 97.88 3.01 92.15 3.26 87.00 4.00 Z"/>
</g>
<g fill="None" fill-opacity="0.0" stroke="#6C726E" stroke-opacity="0.27" stroke-width="0.3"><path d="
M 221.00 4.00 
C 226.46 3.57 232.54 3.63 238.00 4.00
C 232.64 3.04 226.43 2.95 221.00 4.00 Z"/>
</g>
<g fill="None" fill-opacity="0.0" stroke="#F3F4F3" stroke-opacity="0.98" stroke-width="0.3"><path d="
M 20.00 77.00 
C 19.80 82.32 20.00 87.68 20.00 93.00
C 20.00 94.32 19.91 95.68 20.00 97.00
C 21.30 115.39 27.19 133.51 36.08 149.92 C 44.96 166.34 47.50 186.29 50.22 204.78 C 52.94 223.27 58.11 241.25 65.69 258.31 C 73.28 275.36 75.79 287.33 92.92 300.08 C 110.06 312.82 124.92 288.14 131.00 275.00
C 131.47 273.40 131.55 271.63 132.00 270.00
C 133.46 264.70 134.72 259.33 136.00 254.00
C 136.28 252.86 136.61 252.12 137.00 251.00
C 141.28 238.68 149.04 207.36 167.92 215.08 C 186.81 222.79 183.42 246.96 190.07 260.93 C 196.72 274.89 197.72 299.89 217.00 303.00 C 236.28 306.11 245.49 285.70 253.23 271.23 C 260.97 256.76 266.52 236.81 271.02 220.02 C 275.53 203.24 275.61 180.05 282.69 163.69 C 289.78 147.34 298.02 131.62 301.00 114.00
C 301.40 111.66 302.45 108.93 303.00 107.00
C 302.97 106.50 303.02 105.50 303.00 105.00
C 302.94 103.18 303.74 102.16 304.00 101.00
C 304.37 97.16 304.85 93.88 305.00 90.00
C 305.13 86.68 305.00 83.33 305.00 80.00
C 305.00 78.35 305.11 76.65 305.00 75.00
C 304.85 72.89 304.62 69.97 304.00 68.00
C 303.86 67.56 303.20 66.80 303.00 66.00
C 299.43 51.99 294.66 39.31 285.00 28.00
C 282.47 25.47 279.56 22.37 277.00 20.00
C 265.81 11.17 252.25 4.97 238.00 4.00
C 232.54 3.63 226.46 3.57 221.00 4.00
C 199.53 6.33 180.08 16.53 162.00 28.00
C 144.53 16.30 124.49 5.71 103.00 4.00
C 97.80 3.59 92.21 3.80 87.00 4.00
C 50.10 5.41 21.34 41.81 20.00 77.00
M 158.00 135.00 
C 145.89 132.43 140.91 132.93 132.08 121.92 C 123.26 110.90 119.63 124.61 130.25 131.75 C 140.87 138.90 144.81 144.50 158.00 144.00
C 158.00 153.67 158.00 163.33 158.00 173.00
C 142.81 175.63 131.59 169.49 116.00 173.00 C 100.41 176.51 118.51 192.18 114.02 202.02 C 109.54 211.86 91.24 211.46 87.08 201.92 C 82.92 192.38 99.21 175.87 84.97 173.03 C 70.74 170.18 55.38 177.80 51.23 163.77 C 47.08 149.75 43.09 146.36 38.69 134.31 C 34.30 122.25 31.59 112.52 29.67 100.33 C 27.75 88.13 27.33 73.23 30.99 61.99 C 34.66 50.75 38.64 42.85 46.25 34.25 C 53.86 25.64 60.62 20.14 71.22 16.22 C 81.83 12.30 96.22 10.61 108.00 13.00 C 119.78 15.39 127.95 19.72 139.23 24.77 C 150.51 29.82 160.35 34.46 158.00 49.00 C 155.65 63.54 159.23 77.56 158.00 92.00 C 156.77 106.44 158.92 120.58 158.00 135.00
M 162.00 144.00 
C 161.74 141.08 161.91 138.23 163.00 136.00
C 163.60 134.78 164.78 135.09 166.00 135.00
C 166.00 103.67 166.00 72.33 166.00 41.00
C 172.44 44.10 177.77 45.14 184.22 48.78 C 190.68 52.41 198.02 50.79 205.00 54.00 C 211.98 57.20 225.17 46.49 211.00 46.00 C 196.82 45.52 183.56 39.93 171.00 34.00
C 177.38 26.69 186.69 24.11 196.02 20.02 C 205.36 15.94 217.24 12.36 228.00 12.00 C 238.76 11.64 251.75 14.08 260.69 19.31 C 269.64 24.54 275.61 29.82 281.77 38.23 C 287.93 46.64 292.43 54.52 294.77 65.23 C 297.11 75.94 296.16 91.71 295.00 103.00 C 293.84 114.29 289.00 122.97 286.08 134.08 C 283.15 145.18 276.44 149.70 274.08 162.08 C 271.71 174.45 258.27 174.84 245.00 173.00
C 251.89 164.34 253.62 150.75 244.25 142.75 C 234.88 134.76 221.89 134.57 212.25 142.25 C 202.61 149.93 205.83 164.60 212.00 173.00
C 196.67 173.00 181.33 173.00 166.00 173.00
C 166.00 163.67 166.00 154.33 166.00 145.00
C 164.72 144.72 162.50 145.76 162.00 144.00
M 269.00 181.00 
C 267.50 191.06 266.18 202.19 264.00 212.00 C 261.83 221.82 259.20 231.72 256.02 241.02 C 252.85 250.33 249.93 258.93 245.68 267.68 C 241.42 276.43 237.55 281.38 231.25 289.25 C 224.94 297.12 213.13 295.36 208.70 286.30 C 204.27 277.24 201.58 268.56 198.68 259.32 C 195.78 250.08 195.13 239.70 190.68 231.32 C 186.23 222.95 185.14 214.40 175.30 209.70 C 165.46 204.99 165.81 192.28 167.00 181.00
C 181.36 177.84 201.60 185.65 215.02 180.02 C 228.45 174.40 205.31 153.23 220.08 147.08 C 234.85 140.94 249.28 149.98 239.70 165.70 C 230.11 181.41 256.82 183.76 269.00 181.00
M 84.00 181.00 
C 70.94 195.42 80.52 217.70 100.00 218.00 C 119.48 218.30 130.49 195.78 117.00 181.00
C 130.67 181.00 144.33 181.00 158.00 181.00
C 158.00 189.33 158.00 197.67 158.00 206.00
C 142.09 210.56 136.39 223.76 131.22 239.22 C 126.06 254.68 125.64 269.75 116.25 285.25 C 106.85 300.74 89.95 290.05 83.70 275.30 C 77.44 260.56 69.39 248.17 66.02 231.98 C 62.65 215.79 56.85 198.07 56.00 181.00
C 65.33 181.00 74.67 181.00 84.00 181.00 Z"/>
</g>
<g fill="None" fill-opacity="0.0" stroke="#818D83" stroke-opacity="1.00" stroke-width="0.3"><path d="
M 158.00 135.00 
C 158.92 120.58 156.77 106.44 158.00 92.00 C 159.23 77.56 155.65 63.54 158.00 49.00 C 160.35 34.46 150.51 29.82 139.23 24.77 C 127.95 19.72 119.78 15.39 108.00 13.00 C 96.22 10.61 81.83 12.30 71.22 16.22 C 60.62 20.14 53.86 25.64 46.25 34.25 C 38.64 42.85 34.66 50.75 30.99 61.99 C 27.33 73.23 27.75 88.13 29.67 100.33 C 31.59 112.52 34.30 122.25 38.69 134.31 C 43.09 146.36 47.08 149.75 51.23 163.77 C 55.38 177.80 70.74 170.18 84.97 173.03 C 99.21 175.87 82.92 192.38 87.08 201.92 C 91.24 211.46 109.54 211.86 114.02 202.02 C 118.51 192.18 100.41 176.51 116.00 173.00 C 131.59 169.49 142.81 175.63 158.00 173.00
C 158.00 163.33 158.00 153.67 158.00 144.00
C 144.81 144.50 140.87 138.90 130.25 131.75 C 119.63 124.61 123.26 110.90 132.08 121.92 C 140.91 132.93 145.89 132.43 158.00 135.00
M 129.00 77.00 
C 141.17 80.69 133.28 102.63 121.00 97.00 C 108.72 91.37 116.40 73.18 129.00 77.00 Z"/>
</g>
<g fill="None" fill-opacity="0.0" stroke="#BEC5BD" stroke-opacity="1.00" stroke-width="0.3"><path d="
M 163.00 136.00 
C 169.37 136.27 182.86 132.48 186.75 127.75 C 190.63 123.01 201.54 111.31 202.97 120.03 C 204.40 128.75 192.58 131.63 187.92 136.92 C 183.26 142.20 170.10 144.00 163.00 144.00
C 162.50 144.00 162.00 144.00 162.00 144.00
C 162.50 145.76 164.72 144.72 166.00 145.00
C 166.00 154.33 166.00 163.67 166.00 173.00
C 181.33 173.00 196.67 173.00 212.00 173.00
C 205.83 164.60 202.61 149.93 212.25 142.25 C 221.89 134.57 234.88 134.76 244.25 142.75 C 253.62 150.75 251.89 164.34 245.00 173.00
C 258.27 174.84 271.71 174.45 274.08 162.08 C 276.44 149.70 283.15 145.18 286.08 134.08 C 289.00 122.97 293.84 114.29 295.00 103.00 C 296.16 91.71 297.11 75.94 294.77 65.23 C 292.43 54.52 287.93 46.64 281.77 38.23 C 275.61 29.82 269.64 24.54 260.69 19.31 C 251.75 14.08 238.76 11.64 228.00 12.00 C 217.24 12.36 205.36 15.94 196.02 20.02 C 186.69 24.11 177.38 26.69 171.00 34.00
C 183.56 39.93 196.82 45.52 211.00 46.00 C 225.17 46.49 211.98 57.20 205.00 54.00 C 198.02 50.79 190.68 52.41 184.22 48.78 C 177.77 45.14 172.44 44.10 166.00 41.00
C 166.00 72.33 166.00 103.67 166.00 135.00
C 164.78 135.09 163.60 134.78 163.00 136.00
M 203.00 77.00 
C 215.15 79.78 209.77 101.37 197.00 97.00 C 184.23 92.63 190.14 74.06 203.00 77.00 Z"/>
</g>
<g fill="None" fill-opacity="0.0" stroke="#757C78" stroke-opacity="0.34" stroke-width="0.3"><path d="
M 285.00 28.00 
C 282.57 25.16 280.01 22.37 277.00 20.00
C 279.56 22.37 282.47 25.47 285.00 28.00 Z"/>
</g>
<g fill="None" fill-opacity="0.0" stroke="#4F5752" stroke-opacity="0.45" stroke-width="0.3"><path d="
M 304.00 68.00 
C 303.85 66.08 303.93 67.66 303.00 66.00
C 303.20 66.80 303.86 67.56 304.00 68.00 Z"/>
</g>
<g fill="None" fill-opacity="0.0" stroke="#2F3936" stroke-opacity="0.11" stroke-width="0.3"><path d="
M 305.00 80.00 
C 305.05 80.15 306.00 80.00 306.00 80.00
C 305.92 78.01 305.33 76.42 305.00 75.00
C 305.11 76.65 305.00 78.35 305.00 80.00 Z"/>
</g>
<g fill="None" fill-opacity="0.0" stroke="#727874" stroke-opacity="0.31" stroke-width="0.3"><path d="
M 19.00 93.00 
C 19.00 93.04 20.00 93.00 20.00 93.00
C 20.00 87.68 19.80 82.32 20.00 77.00
C 19.33 81.67 18.69 87.57 19.00 93.00 Z"/>
</g>
<g fill="None" fill-opacity="0.0" stroke="#F9FAF8" stroke-opacity="1.00" stroke-width="0.3"><path d="
M 129.00 77.00 
C 116.40 73.18 108.72 91.37 121.00 97.00 C 133.28 102.63 141.17 80.69 129.00 77.00 Z"/>
</g>
<g fill="None" fill-opacity="0.0" stroke="#3E4A41" stroke-opacity="1.00" stroke-width="0.3"><path d="
M 203.00 77.00 
C 190.14 74.06 184.23 92.63 197.00 97.00 C 209.77 101.37 215.15 79.78 203.00 77.00 Z"/>
</g>
<g fill="None" fill-opacity="0.0" stroke="#626862" stroke-opacity="0.19" stroke-width="0.3"><path d="
M 305.00 90.00 
C 305.40 87.19 306.14 83.54 306.00 80.00
C 306.00 80.00 305.05 80.15 305.00 80.00
C 305.00 83.33 305.13 86.68 305.00 90.00 Z"/>
</g>
<g fill="None" fill-opacity="0.0" stroke="#373F3C" stroke-opacity="0.14" stroke-width="0.3"><path d="
M 20.00 97.00 
C 19.91 95.68 20.00 94.32 20.00 93.00
C 20.00 93.00 19.00 93.04 19.00 93.00
C 19.10 94.70 19.68 95.83 20.00 97.00 Z"/>
</g>
<g fill="None" fill-opacity="0.0" stroke="#888D8A" stroke-opacity="0.82" stroke-width="0.3"><path d="
M 303.00 105.00 
C 303.38 103.76 303.83 102.76 304.00 101.00
C 303.74 102.16 302.94 103.18 303.00 105.00 Z"/>
</g>
<g fill="None" fill-opacity="0.0" stroke="#757C78" stroke-opacity="0.70" stroke-width="0.3"><path d="
M 301.00 114.00 
C 301.72 111.63 303.25 110.58 303.00 107.00
C 302.45 108.93 301.40 111.66 301.00 114.00 Z"/>
</g>
<g fill="None" fill-opacity="0.0" stroke="#3C4940" stroke-opacity="1.00" stroke-width="0.3"><path d="
M 163.00 136.00 
C 162.82 138.65 163.24 141.35 163.00 144.00
C 170.10 144.00 183.26 142.20 187.92 136.92 C 192.58 131.63 204.40 128.75 202.97 120.03 C 201.54 111.31 190.63 123.01 186.75 127.75 C 182.86 132.48 169.37 136.27 163.00 136.00 Z"/>
</g>
<g fill="None" fill-opacity="0.0" stroke="#707B72" stroke-opacity="1.00" stroke-width="0.3"><path d="
M 162.00 144.00 
C 162.00 144.00 162.50 144.00 163.00 144.00
C 163.24 141.35 162.82 138.65 163.00 136.00
C 161.91 138.23 161.74 141.08 162.00 144.00 Z"/>
</g>
<g fill="None" fill-opacity="0.0" stroke="#A7AEA6" stroke-opacity="1.00" stroke-width="0.3"><path d="
M 269.00 181.00 
C 256.82 183.76 230.11 181.41 239.70 165.70 C 249.28 149.98 234.85 140.94 220.08 147.08 C 205.31 153.23 228.45 174.40 215.02 180.02 C 201.60 185.65 181.36 177.84 167.00 181.00
C 165.81 192.28 165.46 204.99 175.30 209.70 C 185.14 214.40 186.23 222.95 190.68 231.32 C 195.13 239.70 195.78 250.08 198.68 259.32 C 201.58 268.56 204.27 277.24 208.70 286.30 C 213.13 295.36 224.94 297.12 231.25 289.25 C 237.55 281.38 241.42 276.43 245.68 267.68 C 249.93 258.93 252.85 250.33 256.02 241.02 C 259.20 231.72 261.83 221.82 264.00 212.00 C 266.18 202.19 267.50 191.06 269.00 181.00 Z"/>
</g>
<g fill="None" fill-opacity="0.0" stroke="#818D83" stroke-opacity="1.00" stroke-width="0.3"><path d="
M 84.00 181.00 
C 74.67 181.00 65.33 181.00 56.00 181.00
C 56.85 198.07 62.65 215.79 66.02 231.98 C 69.39 248.17 77.44 260.56 83.70 275.30 C 89.95 290.05 106.85 300.74 116.25 285.25 C 125.64 269.75 126.06 254.68 131.22 239.22 C 136.39 223.76 142.09 210.56 158.00 206.00
C 158.00 197.67 158.00 189.33 158.00 181.00
C 144.33 181.00 130.67 181.00 117.00 181.00
C 130.49 195.78 119.48 218.30 100.00 218.00 C 80.52 217.70 70.94 195.42 84.00 181.00 Z"/>
</g>
<g fill="None" fill-opacity="0.0" stroke="#535C58" stroke-opacity="0.43" stroke-width="0.3"><path d="
M 136.00 254.00 
C 136.63 252.50 136.80 252.14 137.00 251.00
C 136.61 252.12 136.28 252.86 136.00 254.00 Z"/>
</g>
<g fill="None" fill-opacity="0.0" stroke="#49514C" stroke-opacity="0.32" stroke-width="0.3"><path d="
M 131.00 275.00 
C 131.92 273.01 131.79 271.38 132.00 270.00
C 131.55 271.63 131.47 273.40 131.00 275.00 Z"/>
</g>
<g fill="#000000" fill-opacity="0.00" stroke="None">
<path d="
M 0.00 306.00 
L 327.00 306.00
L 327.00 0.00
L 0.00 0.00
L 0.00 306.00
M 103.00 4.00 
C 124.49 5.71 144.53 16.30 162.00 28.00
C 180.08 16.53 199.53 6.33 221.00 4.00
C 226.43 2.95 232.64 3.04 238.00 4.00
C 252.25 4.97 265.81 11.17 277.00 20.00
C 280.01 22.37 282.57 25.16 285.00 28.00
C 294.66 39.31 299.43 51.99 303.00 66.00
C 303.93 67.66 303.85 66.08 304.00 68.00
C 304.62 69.97 304.85 72.89 305.00 75.00
C 305.33 76.42 305.92 78.01 306.00 80.00
C 306.14 83.54 305.40 87.19 305.00 90.00
C 304.85 93.88 304.37 97.16 304.00 101.00
C 303.83 102.76 303.38 103.76 303.00 105.00
C 303.02 105.50 302.97 106.50 303.00 107.00
C 303.25 110.58 301.72 111.63 301.00 114.00
C 298.02 131.62 289.78 147.34 282.69 163.69 C 275.61 180.05 275.53 203.24 271.02 220.02 C 266.52 236.81 260.97 256.76 253.23 271.23 C 245.49 285.70 236.28 306.11 217.00 303.00 C 197.72 299.89 196.72 274.89 190.07 260.93 C 183.42 246.96 186.81 222.79 167.92 215.08 C 149.04 207.36 141.28 238.68 137.00 251.00
C 136.80 252.14 136.63 252.50 136.00 254.00
C 134.72 259.33 133.46 264.70 132.00 270.00
C 131.79 271.38 131.92 273.01 131.00 275.00
C 124.92 288.14 110.06 312.82 92.92 300.08 C 75.79 287.33 73.28 275.36 65.69 258.31 C 58.11 241.25 52.94 223.27 50.22 204.78 C 47.50 186.29 44.96 166.34 36.08 149.92 C 27.19 133.51 21.30 115.39 20.00 97.00
C 19.68 95.83 19.10 94.70 19.00 93.00
C 18.69 87.57 19.33 81.67 20.00 77.00
C 21.34 41.81 50.10 5.41 87.00 4.00
C 92.15 3.26 97.88 3.01 103.00 4.00 Z"/>
</g>
<g fill="#636A65" fill-opacity="0.21" stroke="None">
<path d="
M 87.00 4.00 
C 92.21 3.80 97.80 3.59 103.00 4.00
C 97.88 3.01 92.15 3.26 87.00 4.00 Z"/>
</g>
<g fill="#6C726E" fill-opacity="0.27" stroke="None">
<path d="
M 221.00 4.00 
C 226.46 3.57 232.54 3.63 238.00 4.00
C 232.64 3.04 226.43 2.95 221.00 4.00 Z"/>
</g>
<g fill="#F3F4F3" fill-opacity="0.98" stroke="None">
<path d="
M 20.00 77.00 
C 19.80 82.32 20.00 87.68 20.00 93.00
C 20.00 94.32 19.91 95.68 20.00 97.00
C 21.30 115.39 27.19 133.51 36.08 149.92 C 44.96 166.34 47.50 186.29 50.22 204.78 C 52.94 223.27 58.11 241.25 65.69 258.31 C 73.28 275.36 75.79 287.33 92.92 300.08 C 110.06 312.82 124.92 288.14 131.00 275.00
C 131.47 273.40 131.55 271.63 132.00 270.00
C 133.46 264.70 134.72 259.33 136.00 254.00
C 136.28 252.86 136.61 252.12 137.00 251.00
C 141.28 238.68 149.04 207.36 167.92 215.08 C 186.81 222.79 183.42 246.96 190.07 260.93 C 196.72 274.89 197.72 299.89 217.00 303.00 C 236.28 306.11 245.49 285.70 253.23 271.23 C 260.97 256.76 266.52 236.81 271.02 220.02 C 275.53 203.24 275.61 180.05 282.69 163.69 C 289.78 147.34 298.02 131.62 301.00 114.00
C 301.40 111.66 302.45 108.93 303.00 107.00
C 302.97 106.50 303.02 105.50 303.00 105.00
C 302.94 103.18 303.74 102.16 304.00 101.00
C 304.37 97.16 304.85 93.88 305.00 90.00
C 305.13 86.68 305.00 83.33 305.00 80.00
C 305.00 78.35 305.11 76.65 305.00 75.00
C 304.85 72.89 304.62 69.97 304.00 68.00
C 303.86 67.56 303.20 66.80 303.00 66.00
C 299.43 51.99 294.66 39.31 285.00 28.00
C 282.47 25.47 279.56 22.37 277.00 20.00
C 265.81 11.17 252.25 4.97 238.00 4.00
C 232.54 3.63 226.46 3.57 221.00 4.00
C 199.53 6.33 180.08 16.53 162.00 28.00
C 144.53 16.30 124.49 5.71 103.00 4.00
C 97.80 3.59 92.21 3.80 87.00 4.00
C 50.10 5.41 21.34 41.81 20.00 77.00
M 158.00 135.00 
C 145.89 132.43 140.91 132.93 132.08 121.92 C 123.26 110.90 119.63 124.61 130.25 131.75 C 140.87 138.90 144.81 144.50 158.00 144.00
C 158.00 153.67 158.00 163.33 158.00 173.00
C 142.81 175.63 131.59 169.49 116.00 173.00 C 100.41 176.51 118.51 192.18 114.02 202.02 C 109.54 211.86 91.24 211.46 87.08 201.92 C 82.92 192.38 99.21 175.87 84.97 173.03 C 70.74 170.18 55.38 177.80 51.23 163.77 C 47.08 149.75 43.09 146.36 38.69 134.31 C 34.30 122.25 31.59 112.52 29.67 100.33 C 27.75 88.13 27.33 73.23 30.99 61.99 C 34.66 50.75 38.64 42.85 46.25 34.25 C 53.86 25.64 60.62 20.14 71.22 16.22 C 81.83 12.30 96.22 10.61 108.00 13.00 C 119.78 15.39 127.95 19.72 139.23 24.77 C 150.51 29.82 160.35 34.46 158.00 49.00 C 155.65 63.54 159.23 77.56 158.00 92.00 C 156.77 106.44 158.92 120.58 158.00 135.00
M 162.00 144.00 
C 161.74 141.08 161.91 138.23 163.00 136.00
C 163.60 134.78 164.78 135.09 166.00 135.00
C 166.00 103.67 166.00 72.33 166.00 41.00
C 172.44 44.10 177.77 45.14 184.22 48.78 C 190.68 52.41 198.02 50.79 205.00 54.00 C 211.98 57.20 225.17 46.49 211.00 46.00 C 196.82 45.52 183.56 39.93 171.00 34.00
C 177.38 26.69 186.69 24.11 196.02 20.02 C 205.36 15.94 217.24 12.36 228.00 12.00 C 238.76 11.64 251.75 14.08 260.69 19.31 C 269.64 24.54 275.61 29.82 281.77 38.23 C 287.93 46.64 292.43 54.52 294.77 65.23 C 297.11 75.94 296.16 91.71 295.00 103.00 C 293.84 114.29 289.00 122.97 286.08 134.08 C 283.15 145.18 276.44 149.70 274.08 162.08 C 271.71 174.45 258.27 174.84 245.00 173.00
C 251.89 164.34 253.62 150.75 244.25 142.75 C 234.88 134.76 221.89 134.57 212.25 142.25 C 202.61 149.93 205.83 164.60 212.00 173.00
C 196.67 173.00 181.33 173.00 166.00 173.00
C 166.00 163.67 166.00 154.33 166.00 145.00
C 164.72 144.72 162.50 145.76 162.00 144.00
M 269.00 181.00 
C 267.50 191.06 266.18 202.19 264.00 212.00 C 261.83 221.82 259.20 231.72 256.02 241.02 C 252.85 250.33 249.93 258.93 245.68 267.68 C 241.42 276.43 237.55 281.38 231.25 289.25 C 224.94 297.12 213.13 295.36 208.70 286.30 C 204.27 277.24 201.58 268.56 198.68 259.32 C 195.78 250.08 195.13 239.70 190.68 231.32 C 186.23 222.95 185.14 214.40 175.30 209.70 C 165.46 204.99 165.81 192.28 167.00 181.00
C 181.36 177.84 201.60 185.65 215.02 180.02 C 228.45 174.40 205.31 153.23 220.08 147.08 C 234.85 140.94 249.28 149.98 239.70 165.70 C 230.11 181.41 256.82 183.76 269.00 181.00
M 84.00 181.00 
C 70.94 195.42 80.52 217.70 100.00 218.00 C 119.48 218.30 130.49 195.78 117.00 181.00
C 130.67 181.00 144.33 181.00 158.00 181.00
C 158.00 189.33 158.00 197.67 158.00 206.00
C 142.09 210.56 136.39 223.76 131.22 239.22 C 126.06 254.68 125.64 269.75 116.25 285.25 C 106.85 300.74 89.95 290.05 83.70 275.30 C 77.44 260.56 69.39 248.17 66.02 231.98 C 62.65 215.79 56.85 198.07 56.00 181.00
C 65.33 181.00 74.67 181.00 84.00 181.00 Z"/>
</g>
<g fill="#818D83" fill-opacity="1.00" stroke="None">
<path d="
M 158.00 135.00 
C 158.92 120.58 156.77 106.44 158.00 92.00 C 159.23 77.56 155.65 63.54 158.00 49.00 C 160.35 34.46 150.51 29.82 139.23 24.77 C 127.95 19.72 119.78 15.39 108.00 13.00 C 96.22 10.61 81.83 12.30 71.22 16.22 C 60.62 20.14 53.86 25.64 46.25 34.25 C 38.64 42.85 34.66 50.75 30.99 61.99 C 27.33 73.23 27.75 88.13 29.67 100.33 C 31.59 112.52 34.30 122.25 38.69 134.31 C 43.09 146.36 47.08 149.75 51.23 163.77 C 55.38 177.80 70.74 170.18 84.97 173.03 C 99.21 175.87 82.92 192.38 87.08 201.92 C 91.24 211.46 109.54 211.86 114.02 202.02 C 118.51 192.18 100.41 176.51 116.00 173.00 C 131.59 169.49 142.81 175.63 158.00 173.00
C 158.00 163.33 158.00 153.67 158.00 144.00
C 144.81 144.50 140.87 138.90 130.25 131.75 C 119.63 124.61 123.26 110.90 132.08 121.92 C 140.91 132.93 145.89 132.43 158.00 135.00
M 129.00 77.00 
C 141.17 80.69 133.28 102.63 121.00 97.00 C 108.72 91.37 116.40 73.18 129.00 77.00 Z"/>
</g>
<g fill="#BEC5BD" fill-opacity="1.00" stroke="None">
<path d="
M 163.00 136.00 
C 169.37 136.27 182.86 132.48 186.75 127.75 C 190.63 123.01 201.54 111.31 202.97 120.03 C 204.40 128.75 192.58 131.63 187.92 136.92 C 183.26 142.20 170.10 144.00 163.00 144.00
C 162.50 144.00 162.00 144.00 162.00 144.00
C 162.50 145.76 164.72 144.72 166.00 145.00
C 166.00 154.33 166.00 163.67 166.00 173.00
C 181.33 173.00 196.67 173.00 212.00 173.00
C 205.83 164.60 202.61 149.93 212.25 142.25 C 221.89 134.57 234.88 134.76 244.25 142.75 C 253.62 150.75 251.89 164.34 245.00 173.00
C 258.27 174.84 271.71 174.45 274.08 162.08 C 276.44 149.70 283.15 145.18 286.08 134.08 C 289.00 122.97 293.84 114.29 295.00 103.00 C 296.16 91.71 297.11 75.94 294.77 65.23 C 292.43 54.52 287.93 46.64 281.77 38.23 C 275.61 29.82 269.64 24.54 260.69 19.31 C 251.75 14.08 238.76 11.64 228.00 12.00 C 217.24 12.36 205.36 15.94 196.02 20.02 C 186.69 24.11 177.38 26.69 171.00 34.00
C 183.56 39.93 196.82 45.52 211.00 46.00 C 225.17 46.49 211.98 57.20 205.00 54.00 C 198.02 50.79 190.68 52.41 184.22 48.78 C 177.77 45.14 172.44 44.10 166.00 41.00
C 166.00 72.33 166.00 103.67 166.00 135.00
C 164.78 135.09 163.60 134.78 163.00 136.00
M 203.00 77.00 
C 215.15 79.78 209.77 101.37 197.00 97.00 C 184.23 92.63 190.14 74.06 203.00 77.00 Z"/>
</g>
<g fill="#757C78" fill-opacity="0.34" stroke="None">
<path d="
M 285.00 28.00 
C 282.57 25.16 280.01 22.37 277.00 20.00
C 279.56 22.37 282.47 25.47 285.00 28.00 Z"/>
</g>
<g fill="#4F5752" fill-opacity="0.45" stroke="None">
<path d="
M 304.00 68.00 
C 303.85 66.08 303.93 67.66 303.00 66.00
C 303.20 66.80 303.86 67.56 304.00 68.00 Z"/>
</g>
<g fill="#2F3936" fill-opacity="0.11" stroke="None">
<path d="
M 305.00 80.00 
C 305.05 80.15 306.00 80.00 306.00 80.00
C 305.92 78.01 305.33 76.42 305.00 75.00
C 305.11 76.65 305.00 78.35 305.00 80.00 Z"/>
</g>
<g fill="#727874" fill-opacity="0.31" stroke="None">
<path d="
M 19.00 93.00 
C 19.00 93.04 20.00 93.00 20.00 93.00
C 20.00 87.68 19.80 82.32 20.00 77.00
C 19.33 81.67 18.69 87.57 19.00 93.00 Z"/>
</g>
<g fill="#F9FAF8" fill-opacity="1.00" stroke="None">
<path d="
M 129.00 77.00 
C 116.40 73.18 108.72 91.37 121.00 97.00 C 133.28 102.63 141.17 80.69 129.00 77.00 Z"/>
</g>
<g fill="#3E4A41" fill-opacity="1.00" stroke="None">
<path d="
M 203.00 77.00 
C 190.14 74.06 184.23 92.63 197.00 97.00 C 209.77 101.37 215.15 79.78 203.00 77.00 Z"/>
</g>
<g fill="#626862" fill-opacity="0.19" stroke="None">
<path d="
M 305.00 90.00 
C 305.40 87.19 306.14 83.54 306.00 80.00
C 306.00 80.00 305.05 80.15 305.00 80.00
C 305.00 83.33 305.13 86.68 305.00 90.00 Z"/>
</g>
<g fill="#373F3C" fill-opacity="0.14" stroke="None">
<path d="
M 20.00 97.00 
C 19.91 95.68 20.00 94.32 20.00 93.00
C 20.00 93.00 19.00 93.04 19.00 93.00
C 19.10 94.70 19.68 95.83 20.00 97.00 Z"/>
</g>
<g fill="#888D8A" fill-opacity="0.82" stroke="None">
<path d="
M 303.00 105.00 
C 303.38 103.76 303.83 102.76 304.00 101.00
C 303.74 102.16 302.94 103.18 303.00 105.00 Z"/>
</g>
<g fill="#757C78" fill-opacity="0.70" stroke="None">
<path d="
M 301.00 114.00 
C 301.72 111.63 303.25 110.58 303.00 107.00
C 302.45 108.93 301.40 111.66 301.00 114.00 Z"/>
</g>
<g fill="#3C4940" fill-opacity="1.00" stroke="None">
<path d="
M 163.00 136.00 
C 162.82 138.65 163.24 141.35 163.00 144.00
C 170.10 144.00 183.26 142.20 187.92 136.92 C 192.58 131.63 204.40 128.75 202.97 120.03 C 201.54 111.31 190.63 123.01 186.75 127.75 C 182.86 132.48 169.37 136.27 163.00 136.00 Z"/>
</g>
<g fill="#707B72" fill-opacity="1.00" stroke="None">
<path d="
M 162.00 144.00 
C 162.00 144.00 162.50 144.00 163.00 144.00
C 163.24 141.35 162.82 138.65 163.00 136.00
C 161.91 138.23 161.74 141.08 162.00 144.00 Z"/>
</g>
<g fill="#A7AEA6" fill-opacity="1.00" stroke="None">
<path d="
M 269.00 181.00 
C 256.82 183.76 230.11 181.41 239.70 165.70 C 249.28 149.98 234.85 140.94 220.08 147.08 C 205.31 153.23 228.45 174.40 215.02 180.02 C 201.60 185.65 181.36 177.84 167.00 181.00
C 165.81 192.28 165.46 204.99 175.30 209.70 C 185.14 214.40 186.23 222.95 190.68 231.32 C 195.13 239.70 195.78 250.08 198.68 259.32 C 201.58 268.56 204.27 277.24 208.70 286.30 C 213.13 295.36 224.94 297.12 231.25 289.25 C 237.55 281.38 241.42 276.43 245.68 267.68 C 249.93 258.93 252.85 250.33 256.02 241.02 C 259.20 231.72 261.83 221.82 264.00 212.00 C 266.18 202.19 267.50 191.06 269.00 181.00 Z"/>
</g>
<g fill="#818D83" fill-opacity="1.00" stroke="None">
<path d="
M 84.00 181.00 
C 74.67 181.00 65.33 181.00 56.00 181.00
C 56.85 198.07 62.65 215.79 66.02 231.98 C 69.39 248.17 77.44 260.56 83.70 275.30 C 89.95 290.05 106.85 300.74 116.25 285.25 C 125.64 269.75 126.06 254.68 131.22 239.22 C 136.39 223.76 142.09 210.56 158.00 206.00
C 158.00 197.67 158.00 189.33 158.00 181.00
C 144.33 181.00 130.67 181.00 117.00 181.00
C 130.49 195.78 119.48 218.30 100.00 218.00 C 80.52 217.70 70.94 195.42 84.00 181.00 Z"/>
</g>
<g fill="#535C58" fill-opacity="0.43" stroke="None">
<path d="
M 136.00 254.00 
C 136.63 252.50 136.80 252.14 137.00 251.00
C 136.61 252.12 136.28 252.86 136.00 254.00 Z"/>
</g>
<g fill="#49514C" fill-opacity="0.32" stroke="None">
<path d="
M 131.00 275.00 
C 131.92 273.01 131.79 271.38 132.00 270.00
C 131.55 271.63 131.47 273.40 131.00 275.00 Z"/>
</g>
</svg>